<?xml version="1.0" encoding="utf-8"?>
<!-- Generator: Adobe Illustrator 25.1.0, SVG Export Plug-In . SVG Version: 6.00 Build 0)  -->
<svg version="1.1" id="Ebene_1" xmlns="http://www.w3.org/2000/svg" xmlns:xlink="http://www.w3.org/1999/xlink" x="0px" y="0px"
	 viewBox="0 0 24 16" style="enable-background:new 0 0 24 16;" xml:space="preserve">
<style type="text/css">
	.st0{fill:#FFFFFF;}
</style>
<path class="st0" d="M19.7,7.2L20,8.9h-1.3l0.6-1.7l0.2-0.6C19.6,6.6,19.7,7.2,19.7,7.2z M24,2v12c0,1.1-0.9,2-2,2H2
	c-1.1,0-2-0.9-2-2V2c0-1.1,0.9-2,2-2h20C23.1,0,24,0.9,24,2z M6.9,11L9.4,5H7.7L6.1,9.1L5.9,8.3L5.4,5.5C5.3,5.2,5,5.1,4.6,5H2
	l0,0.1c0.6,0.2,1.2,0.4,1.7,0.7L5.1,11C5.1,11,6.9,11,6.9,11z M11.7,5h-1.6L9,11h1.6C10.7,11,11.7,5,11.7,5z M16.3,9
	c0-0.7-0.4-1.2-1.4-1.6C14.4,7.1,14,7,14,6.7c0-0.2,0.3-0.5,0.9-0.5c0.5,0,0.9,0.1,1.2,0.2l0.1,0.1l0.2-1.3
	c-0.3-0.1-0.8-0.2-1.5-0.2c-1.6,0-2.7,0.8-2.7,2c0,0.9,0.8,1.3,1.4,1.6c0.6,0.3,0.8,0.5,0.8,0.7c0,0.4-0.5,0.6-1,0.6
	c-0.6,0-1-0.1-1.5-0.3l-0.2-0.1l-0.2,1.3c0.4,0.2,1.1,0.3,1.8,0.3C15.2,11.1,16.3,10.3,16.3,9z M22,11L20.7,5h-1.3
	c-0.4,0-0.7,0.1-0.8,0.5L16.2,11h1.7l0.3-0.9l2.1,0l0.2,0.9C20.5,11,22,11,22,11z"/>
</svg>
